<?xml version="1.0" encoding="utf-8"?>
<!-- Generator: Adobe Illustrator 22.1.0, SVG Export Plug-In . SVG Version: 6.00 Build 0)  -->
<svg version="1.1" id="Capa_1" xmlns="http://www.w3.org/2000/svg" xmlns:xlink="http://www.w3.org/1999/xlink" x="0px" y="0px"
	 viewBox="0 0 395 204" style="enable-background:new 0 0 395 204;" xml:space="preserve">
<style type="text/css">
	.st0{fill:#2D2F36;}
	.st1{fill:#FFFFFF;}
	.st2{fill:#007BFF;}
</style>
<g id="Capa_1_1_">
</g>
<g id="Capa_2_1_">
	<g>
		<g>
			<g>
				<g>
					<path class="st0" d="M388.1,101.4c0,52.2-42.3,94.5-94.5,94.5c-26.2,0-49.8-10.6-66.9-27.8c-8.5,3.5-17.7,5.4-27.5,5.4
						c-9.8,0-19-1.9-27.5-5.4c-17.1,17.2-40.8,27.8-67,27.8c-52.2,0-94.5-42.3-94.5-94.5S52.5,6.9,104.7,6.9
						c26,0,49.6,10.5,66.7,27.5c8.6-3.6,18-5.5,27.8-5.5c9.8,0,19.2,2,27.8,5.5c17.1-17,40.6-27.5,66.6-27.5
						C345.8,6.9,388.1,49.2,388.1,101.4z"/>
				</g>
				<g>
					<path class="st1" d="M76.4,100.1c-3.6,3.7-9.6,3.7-13.3,0c-3.7-3.7-3.7-9.7,0-13.3l24.1-24.1c3.7-3.7,9.7-3.7,13.3,0
						c3.7,3.7,3.7,9.7,0,13.3L76.4,100.1z"/>
					<path class="st1" d="M129.9,86.7l-42.8,42.8c-3.7,3.6-9.6,3.6-13.3,0c-3.7-3.7-3.7-9.7,0-13.3l42.8-42.8
						c3.7-3.7,9.7-3.7,13.3,0C133.6,77.1,133.6,83.1,129.9,86.7z"/>
					<path class="st1" d="M140.6,116.1l-24.1,24.1c-3.7,3.6-9.6,3.6-13.3,0c-3.7-3.7-3.7-9.7,0-13.3l24.1-24.1
						c3.7-3.7,9.7-3.7,13.3,0C144.3,106.5,144.3,112.5,140.6,116.1z"/>
				</g>
				<path class="st2" d="M101.6,29c-40,0-72.4,32.4-72.4,72.4c0,40,32.4,72.4,72.4,72.4c40,0,72.4-32.4,72.4-72.4
					C174,61.4,141.6,29,101.6,29z M140.6,116.1l-24.1,24.1c-3.7,3.6-9.6,3.6-13.3,0c-3.7-3.7-3.7-9.7,0-13.3l24.1-24.1
					c3.7-3.7,9.7-3.7,13.3,0C144.3,106.5,144.3,112.5,140.6,116.1z M63.1,86.8l24.1-24.1c3.7-3.7,9.7-3.7,13.3,0
					c3.7,3.7,3.7,9.7,0,13.3l-24.1,24.1c-3.6,3.7-9.6,3.7-13.3,0C59.4,96.4,59.4,90.4,63.1,86.8z M129.9,86.7l-42.8,42.8
					c-3.7,3.6-9.6,3.6-13.3,0c-3.7-3.7-3.7-9.7,0-13.3l42.8-42.8c3.7-3.7,9.7-3.7,13.3,0C133.6,77.1,133.6,83.1,129.9,86.7z"/>
				<g>
					<path class="st1" d="M273.8,100.1c-3.6,3.7-9.6,3.7-13.3,0c-3.7-3.7-3.7-9.7,0-13.3l24.1-24.1c3.7-3.7,9.7-3.7,13.3,0
						c3.7,3.7,3.7,9.7,0,13.3L273.8,100.1z"/>
					<path class="st1" d="M327.3,86.7l-42.8,42.8c-3.6,3.6-9.6,3.6-13.3,0c-3.7-3.7-3.7-9.7,0-13.3L314,73.4c3.7-3.7,9.7-3.7,13.3,0
						C331,77.1,331,83.1,327.3,86.7z"/>
					<path class="st1" d="M338,116.1l-24.1,24.1c-3.7,3.6-9.6,3.6-13.3,0c-3.7-3.7-3.7-9.7,0-13.3l24.1-24.1c3.7-3.7,9.7-3.7,13.3,0
						C341.7,106.5,341.7,112.5,338,116.1z"/>
				</g>
				<path class="st2" d="M293.6,29c-40,0-72.4,32.4-72.4,72.4c0,40,32.4,72.4,72.4,72.4c40,0,72.4-32.4,72.4-72.4
					C366,61.4,333.6,29,293.6,29z M300.6,140.2c-3.7-3.7-3.7-9.7,0-13.3l24.1-24.1c3.7-3.7,9.7-3.7,13.3,0c3.7,3.7,3.7,9.7,0,13.3
					l-24.1,24.1C310.2,143.8,304.3,143.8,300.6,140.2z M260.5,86.8l24.1-24.1c3.7-3.7,9.7-3.7,13.3,0c3.7,3.7,3.7,9.7,0,13.3
					l-24.1,24.1c-3.6,3.7-9.6,3.7-13.3,0C256.8,96.4,256.8,90.4,260.5,86.8z M271.2,129.5c-3.7-3.7-3.7-9.7,0-13.3L314,73.4
					c3.7-3.7,9.7-3.7,13.3,0c3.7,3.7,3.7,9.7,0,13.3l-42.8,42.8C280.9,133.1,274.9,133.1,271.2,129.5z"/>
			</g>
		</g>
	</g>
</g>
</svg>
