<?xml version="1.0" encoding="utf-8"?>
<!-- Generator: Adobe Illustrator 22.1.0, SVG Export Plug-In . SVG Version: 6.00 Build 0)  -->
<svg version="1.1" xmlns="http://www.w3.org/2000/svg" xmlns:xlink="http://www.w3.org/1999/xlink" x="0px" y="0px"
	 viewBox="0 0 395 204" style="enable-background:new 0 0 395 204;" xml:space="preserve">
<style type="text/css">
	.st0{fill:#2D2F36;}
	.st1{fill:#007BFF;}
	.st2{fill-rule:evenodd;clip-rule:evenodd;fill:#FFFFFF;}
</style>
<g id="Capa_1">
</g>
<g id="Capa_2">
	<g>
		<g>
			<g>
				<g>
					<circle class="st0" cx="199.2" cy="101.2" r="72.3"/>
				</g>
				<g>
					<circle class="st0" cx="104.7" cy="101.4" r="94.5"/>
				</g>
				<g>
					<circle class="st0" cx="293.6" cy="101.4" r="94.5"/>
				</g>
				<g>
					<circle class="st1" cx="293.6" cy="101.4" r="72.4"/>
				</g>
				<g>
					<circle class="st1" cx="101.6" cy="101.4" r="72.4"/>
				</g>
				<g>
					<path class="st2" d="M73.8,129.5L73.8,129.5c-3.7-3.7-3.7-9.7,0-13.3l42.8-42.8c3.7-3.7,9.7-3.7,13.3,0l0,0
						c3.7,3.7,3.7,9.7,0,13.3l-42.8,42.8C83.4,133.1,77.5,133.1,73.8,129.5z"/>
					<path class="st2" d="M103.2,140.2L103.2,140.2c-3.7-3.7-3.7-9.7,0-13.3l24.1-24.1c3.7-3.7,9.7-3.7,13.3,0l0,0
						c3.7,3.7,3.7,9.7,0,13.3l-24.1,24.1C112.8,143.8,106.9,143.8,103.2,140.2z"/>
					<path class="st2" d="M63.1,100.1L63.1,100.1c-3.7-3.7-3.7-9.7,0-13.3l24.1-24.1c3.7-3.7,9.7-3.7,13.3,0l0,0
						c3.7,3.7,3.7,9.7,0,13.3l-24.1,24.1C72.8,103.8,66.8,103.8,63.1,100.1z"/>
				</g>
				<g>
					<path class="st2" d="M271.2,129.5L271.2,129.5c-3.7-3.7-3.7-9.7,0-13.3L314,73.4c3.7-3.7,9.7-3.7,13.3,0l0,0
						c3.7,3.7,3.7,9.7,0,13.3l-42.8,42.8C280.9,133.1,274.9,133.1,271.2,129.5z"/>
					<path class="st2" d="M300.6,140.2L300.6,140.2c-3.7-3.7-3.7-9.7,0-13.3l24.1-24.1c3.7-3.7,9.7-3.7,13.3,0v0
						c3.7,3.7,3.7,9.7,0,13.3l-24.1,24.1C310.2,143.8,304.3,143.8,300.6,140.2z"/>
					<path class="st2" d="M260.5,100.1L260.5,100.1c-3.7-3.7-3.7-9.7,0-13.3l24.1-24.1c3.7-3.7,9.7-3.7,13.3,0v0
						c3.7,3.7,3.7,9.7,0,13.3l-24.1,24.1C270.2,103.8,264.2,103.8,260.5,100.1z"/>
				</g>
			</g>
		</g>
	</g>
</g>
</svg>
